<?xml version="1.0" standalone="no"?>
<!DOCTYPE svg PUBLIC "-//W3C//DTD SVG 20010904//EN"
 "http://www.w3.org/TR/2001/REC-SVG-20010904/DTD/svg10.dtd">
<svg version="1.0" xmlns="http://www.w3.org/2000/svg"
 width="512.000000pt" height="512.000000pt" viewBox="0 0 512.000000 512.000000"
 preserveAspectRatio="xMidYMid meet">
<metadata>
Created by potrace 1.14, written by Peter Selinger 2001-2017
</metadata>
<g transform="translate(0.000000,512.000000) scale(0.100000,-0.100000)"
fill="#000000" stroke="none">
<path d="M2419 4666 c-2 -2 -31 -7 -64 -10 -375 -34 -760 -192 -1080 -444 -63
-49 -277 -258 -315 -308 -8 -10 -30 -38 -48 -61 -147 -188 -314 -529 -363
-743 -6 -25 -13 -54 -15 -65 -39 -170 -49 -261 -48 -470 0 -164 5 -247 19
-330 41 -231 84 -366 177 -565 68 -145 124 -238 222 -370 69 -92 236 -272 315
-337 l39 -33 54 44 c214 176 516 226 778 129 138 -51 288 -168 371 -290 64
-92 126 -253 128 -331 l1 -24 108 6 c59 3 118 8 132 10 14 3 45 7 70 10 189
25 403 92 605 191 227 110 391 229 574 413 l124 126 -29 25 c-16 14 -51 44
-78 66 -27 22 -54 45 -60 50 -6 6 -36 30 -66 55 -30 25 -57 47 -60 50 -3 3
-43 37 -90 75 -84 69 -103 84 -163 136 l-30 26 48 66 c95 127 181 307 219 452
32 128 41 202 41 355 -1 165 -14 260 -57 400 -39 127 -127 298 -210 409 l-40
53 23 22 c13 12 62 53 109 92 47 38 96 79 110 91 14 12 59 49 100 83 112 93
171 142 203 171 l30 25 -124 125 c-119 121 -275 247 -376 305 -26 16 -50 31
-53 34 -3 4 -54 31 -115 62 -142 71 -312 136 -431 163 -69 16 -216 45 -249 50
-48 7 -430 16 -436 11z"/>
</g>
</svg>
